This movie is Hong Kong's answer to Sex and the City and there's not a Charlotte in the house. Barbara Wong interviews HK women (of all ages (even 4 year olds), all walks of life, all sexual preferences, singletons, wives, mistresses, prostitutes) with an all women crew and gets some wild and frank responses. The documentary is bold, honest, funny and touching. Highly recommended to any man who wants to understand women better and any woman who wants a fun girls' night out. 

Cantonese audio
English subs (hard encoded)

MP4 encoded with h264 and AAC 256 kbps audio with 5.1 surround sound

Format                                   : MPEG-4
Format profile                           : Base Media / Version 2
Codec ID                                 : mp42
File size                                : 1.05 GiB
Duration                                 : 1h 35mn
Overall bit rate mode                    : Variable
Overall bit rate                         : 1 567 Kbps
Movie name                               : Womens Private Parts
Album                                    : Womens Private Parts
Performer                                : Barbara Wong Chun Chun
Encoded date                             : UTC 2013-03-31 00:19:58
Tagged date                              : UTC 2013-03-31 01:24:27
Writing application                      : DVDFab

Video
ID                                       : 1
Format                                   : AVC
Format/Info                              : Advanced Video Codec
Format profile                           : Main@L3.0
Format settings, CABAC                   : Yes
Format settings, ReFrames                : 1 frame
Codec ID                                 : avc1
Codec ID/Info                            : Advanced Video Coding
Duration                                 : 1h 35mn
Bit rate mode                            : Variable
Bit rate                                 : 1 308 Kbps
Width                                    : 720 pixels
Height                                   : 404 pixels
Display aspect ratio                     : 16:9
Frame rate mode                          : Constant
Frame rate                               : 29.970 fps
Color space                              : YUV
Chroma subsampling                       : 4:2:0
Bit depth                                : 8 bits
Scan type                                : Progressive
Bits/(Pixel*Frame)                       : 0.150
Stream size                              : 897 MiB (83%)
Writing library                          : x264 core
Encoded date                             : UTC 2013-03-31 00:19:58
Tagged date                              : UTC 2013-03-31 01:24:18
Color primaries                          : BT.601 NTSC
Transfer characteristics                 : BT.709
Matrix coefficients                      : BT.601

Audio
ID                                       : 2
Format                                   : AAC
Format/Info                              : Advanced Audio Codec
Format profile                           : LC
Codec ID                                 : 40
Duration                                 : 1h 35mn
Bit rate mode                            : Variable
Bit rate                                 : 256 Kbps
Maximum bit rate                         : 292 Kbps
Channel(s)                               : 6 channels
Channel positions                        : Front: L C R, Side: L R, LFE
Sampling rate                            : 48.0 KHz
Compression mode                         : Lossy
Stream size                              : 176 MiB (16%)
Language                                 : English
Encoded date                             : UTC 2013-03-31 00:19:58
Tagged date                              : UTC 2013-03-31 01:23:24

Text
ID                                       : 3
Format                                   : Apple text
Codec ID                                 : text
Duration                                 : 1h 35mn
Bit rate mode                            : Constant
Bit rate                                 : 0 bps
Stream size                              : 161 Bytes (0%)
Encoded date                             : UTC 2013-03-31 00:19:58
Tagged date                              : UTC 2013-03-31 01:24:27


